<svg version="1.0" xmlns="http://www.w3.org/2000/svg"
    width="128.000000pt" height="128.000000pt" viewBox="0 0 128.000000 128.000000"
    preserveAspectRatio="xMidYMid meet">

    <g transform="translate(0.000000,128.000000) scale(0.100000,-0.100000)"
        fill="#ff540a" stroke="none">
        <path
            d="M17 1138 c2 -18 6 -43 9 -55 l4 -23 278 -2 277 -3 0 -35 0 -35 -262
-3 c-145 -1 -263 -6 -263 -10 0 -4 13 -29 28 -57 l27 -50 238 -3 237 -2 0 -35
0 -35 -229 0 -229 0 -12 -47 c-53 -205 6 -420 156 -570 35 -34 69 -63 76 -63
7 0 90 77 183 171 94 94 187 182 208 195 146 95 349 44 436 -108 l28 -49 16
43 c49 132 56 276 19 393 -60 195 -221 348 -417 400 -48 12 -129 15 -435 15
l-377 0 4 -32z m1013 -308 c29 -29 26 -74 -6 -99 -15 -12 -34 -21 -44 -21 -10
0 -29 9 -44 21 -50 40 -21 119 44 119 17 0 39 -9 50 -20z" />
    </g>
</svg>